<svg class="svg-icon" style="width: 1em; height: 1em;vertical-align: middle;fill: currentColor;overflow: hidden;" viewBox="0 0 1024 1024" version="1.1" xmlns="http://www.w3.org/2000/svg"><path d="M848 144H608V96a48 48 0 0 0-48-48h-96a48 48 0 0 0-48 48v48H176a48 48 0 0 0-48 48v48h768v-48a48 48 0 0 0-48-48zM176 928a48 48 0 0 0 48 48h576a48 48 0 0 0 48-48V288H176v640z m480-496a48 48 0 1 1 96 0v400a48 48 0 1 1-96 0V432z m-192 0a48 48 0 1 1 96 0v400a48 48 0 1 1-96 0V432z m-192 0a48 48 0 1 1 96 0v400a48 48 0 1 1-96 0V432z" fill="" /></svg>